<svg width="32" height="32" viewBox="0 0 32 32" fill="none" xmlns="http://www.w3.org/2000/svg">
<g clip-path="url(#clip0_124_344)">
<path d="M21.312 0H10.688C4.78518 0 0 4.78518 0 10.688V21.312C0 27.2148 4.78518 32 10.688 32H21.312C27.2148 32 32 27.2148 32 21.312V10.688C32 4.78518 27.2148 0 21.312 0Z" fill="#9BC83E"/>
<path d="M21.7999 3.81589C25.3279 3.81589 28.1839 6.67189 28.1839 10.1999V21.7999C28.1839 25.3279 25.3279 28.1839 21.7999 28.1839H10.1999C6.67189 28.1839 3.81589 25.3279 3.81589 21.7999V10.1999C3.81589 6.67189 6.67189 3.81589 10.1999 3.81589H21.7999ZM21.7999 2.08789H10.1999C5.72789 2.08789 2.08789 5.72789 2.08789 10.1999V21.7999C2.08789 26.2719 5.72789 29.9119 10.1999 29.9119H21.7999C26.2719 29.9119 29.9119 26.2719 29.9119 21.7999V10.1999C29.9119 5.72789 26.2719 2.08789 21.7999 2.08789Z" fill="white"/>
<path d="M3.81615 11.2641H28.1921C28.6721 11.2641 29.0561 10.8801 29.0561 10.4001C29.0561 9.92013 28.6721 9.53613 28.1921 9.53613H3.81615C3.33615 9.53613 2.95215 9.92013 2.95215 10.4001C2.95215 10.8801 3.33615 11.2641 3.81615 11.2641Z" fill="white"/>
<path d="M11.8082 22.3201V28.6801M15.1522 18.9761C15.1522 20.8241 13.6562 22.3281 11.8002 22.3281C9.94424 22.3281 8.44824 20.8321 8.44824 18.9761C8.44824 17.1201 9.94424 14.3281 11.8002 14.3281C13.6562 14.3281 15.1522 17.1281 15.1522 18.9761Z" stroke="white" stroke-width="1.66" stroke-miterlimit="10"/>
<path d="M19.1836 14.8242V28.5282" stroke="white" stroke-width="2.05" stroke-miterlimit="10"/>
<path d="M22.8564 14.8242V28.5282" stroke="white" stroke-width="2.05" stroke-miterlimit="10"/>
<path d="M11.9035 7.16035C11.1355 7.16035 10.5195 6.53635 10.5195 5.77635V2.74435C10.5195 1.97635 11.1435 1.36035 11.9035 1.36035C12.6635 1.36035 13.2875 1.98435 13.2875 2.74435V5.77635C13.2875 6.54435 12.6635 7.16035 11.9035 7.16035Z" fill="#9BC83E"/>
<path d="M11.9039 1.78392C12.4319 1.78392 12.8559 2.20792 12.8559 2.73592V5.76792C12.8559 6.29592 12.4319 6.71992 11.9039 6.71992C11.3759 6.71992 10.9519 6.29592 10.9519 5.76792V2.73592C10.9519 2.20792 11.3759 1.78392 11.9039 1.78392ZM11.9039 0.919922C10.9039 0.919922 10.0879 1.73592 10.0879 2.73592V5.76792C10.0879 6.76792 10.9039 7.58392 11.9039 7.58392C12.9039 7.58392 13.7199 6.76792 13.7199 5.76792V2.73592C13.7199 1.73592 12.9039 0.919922 11.9039 0.919922Z" fill="white"/>
<path d="M20.0959 7.16035C19.3279 7.16035 18.7119 6.53635 18.7119 5.77635V2.74435C18.7119 1.97635 19.3359 1.36035 20.0959 1.36035C20.8559 1.36035 21.4799 1.98435 21.4799 2.74435V5.77635C21.4799 6.54435 20.8559 7.16035 20.0959 7.16035Z" fill="#9BC83E"/>
<path d="M20.0963 1.78392C20.6243 1.78392 21.0483 2.20792 21.0483 2.73592V5.76792C21.0483 6.29592 20.6243 6.71992 20.0963 6.71992C19.5683 6.71992 19.1443 6.29592 19.1443 5.76792V2.73592C19.1443 2.20792 19.5683 1.78392 20.0963 1.78392ZM20.0963 0.919922C19.0963 0.919922 18.2803 1.73592 18.2803 2.73592V5.76792C18.2803 6.76792 19.0963 7.58392 20.0963 7.58392C21.0963 7.58392 21.9123 6.76792 21.9123 5.76792V2.73592C21.9123 1.73592 21.0963 0.919922 20.0963 0.919922Z" fill="white"/>
</g>
<defs>
<clipPath id="clip0_124_344">
<rect width="32" height="32" fill="white"/>
</clipPath>
</defs>
</svg>
