<svg width="20" height="20" viewBox="0 0 20 20" fill="none" xmlns="http://www.w3.org/2000/svg">
<g clip-path="url(#clip0_146_1703)">
<path d="M13.3167 0H6.68333C2.99223 0 0 2.99223 0 6.68333V13.3167C0 17.0078 2.99223 20 6.68333 20H13.3167C17.0078 20 20 17.0078 20 13.3167V6.68333C20 2.99223 17.0078 0 13.3167 0Z" fill="#9BC83E"/>
<path d="M13.6248 2.38314C15.8331 2.38314 17.6165 4.16647 17.6165 6.3748V13.6248C17.6165 15.8331 15.8331 17.6165 13.6248 17.6165H6.3748C4.16647 17.6165 2.38314 15.8331 2.38314 13.6248V6.3748C2.38314 4.16647 4.16647 2.38314 6.3748 2.38314H13.6248ZM13.6248 1.2998H6.3748C3.5748 1.2998 1.2998 3.5748 1.2998 6.3748V13.6248C1.2998 16.4248 3.5748 18.6915 6.36647 18.6915H13.6165C16.4165 18.6915 18.6831 16.4165 18.6831 13.6248V6.3748C18.6831 3.5748 16.4081 1.30814 13.6165 1.30814L13.6248 1.2998Z" fill="white"/>
<path d="M2.38346 7.04134H17.6168C17.9168 7.04134 18.1585 6.79967 18.1585 6.49967C18.1585 6.19967 17.9168 5.95801 17.6168 5.95801H2.38346C2.08346 5.95801 1.8418 6.19967 1.8418 6.49967C1.8418 6.79967 2.08346 7.04134 2.38346 7.04134Z" fill="white"/>
<path d="M7.37533 13.9502V17.9252M9.47533 11.8585C9.47533 13.0169 8.54199 13.9502 7.38366 13.9502C6.22533 13.9502 5.29199 13.0169 5.29199 11.8585C5.29199 10.7002 6.22533 8.9502 7.38366 8.9502C8.54199 8.9502 9.47533 10.7002 9.47533 11.8585Z" stroke="white" stroke-miterlimit="10"/>
<path d="M11.9912 9.2666V17.8333" stroke="white" stroke-width="1.23" stroke-miterlimit="10"/>
<path d="M14.2832 9.2666V17.8333" stroke="white" stroke-width="1.23" stroke-miterlimit="10"/>
<path d="M7.44186 4.47513C6.96686 4.47513 6.5752 4.08346 6.5752 3.60846V1.70846C6.5752 1.23346 6.96686 0.841797 7.44186 0.841797C7.91686 0.841797 8.30853 1.23346 8.30853 1.70846V3.60846C8.30853 4.08346 7.91686 4.47513 7.44186 4.47513Z" fill="#9BC83E"/>
<path d="M7.44193 1.11686C7.77526 1.11686 8.04193 1.38353 8.04193 1.71686V3.61686C8.04193 3.9502 7.77526 4.21686 7.44193 4.21686C7.10859 4.21686 6.84193 3.9502 6.84193 3.61686V1.71686C6.84193 1.38353 7.10859 1.11686 7.44193 1.11686ZM7.44193 0.575195C6.81693 0.575195 6.30859 1.08353 6.30859 1.70853V3.60853C6.30859 4.23353 6.81693 4.74186 7.44193 4.74186C8.06693 4.74186 8.57526 4.23353 8.57526 3.60853V1.70853C8.57526 1.08353 8.06693 0.575195 7.44193 0.575195Z" fill="white"/>
<path d="M12.5581 4.47513C12.0831 4.47513 11.6914 4.08346 11.6914 3.60846V1.70846C11.6914 1.23346 12.0831 0.841797 12.5581 0.841797C13.0331 0.841797 13.4247 1.23346 13.4247 1.70846V3.60846C13.4247 4.08346 13.0331 4.47513 12.5581 4.47513Z" fill="#9BC83E"/>
<path d="M12.5581 1.11686C12.8915 1.11686 13.1581 1.38353 13.1581 1.71686V3.61686C13.1581 3.9502 12.8915 4.21686 12.5581 4.21686C12.2248 4.21686 11.9581 3.9502 11.9581 3.61686V1.71686C11.9581 1.38353 12.2248 1.11686 12.5581 1.11686ZM12.5581 0.575195C11.9331 0.575195 11.4248 1.08353 11.4248 1.70853V3.60853C11.4248 4.23353 11.9331 4.74186 12.5581 4.74186C13.1831 4.74186 13.6915 4.23353 13.6915 3.60853V1.70853C13.6915 1.08353 13.1831 0.575195 12.5581 0.575195Z" fill="white"/>
</g>
<defs>
<clipPath id="clip0_146_1703">
<rect width="20" height="20" fill="white"/>
</clipPath>
</defs>
</svg>
