<svg width="197" height="42" viewBox="0 0 197 42" fill="none" xmlns="http://www.w3.org/2000/svg">
<g clip-path="url(#clip0_124_417)">
<path d="M109.606 10.5806C108.988 10.5806 108.594 10.5917 108.199 10.5806C108.015 10.5806 107.845 10.5139 107.661 10.4694C103.81 9.40127 102.759 6.79783 104.769 3.99412C106.281 1.88021 108.673 0.74538 111.459 0.255844C116.781 -0.678726 121.591 1.85796 123.089 6.43068C123.457 7.55439 123.641 8.74485 123.681 9.90194C123.799 13.4066 123.641 16.9112 122.971 20.3825C122.958 20.4603 122.971 20.5382 122.971 20.7385C123.155 20.5382 123.3 20.427 123.392 20.3046C128.018 13.8405 132.644 7.37637 137.257 0.912268C137.901 0.0222012 138.111 -0.0779312 139.294 0.222466C141.278 0.734254 142.895 1.71333 144.117 3.12631C144.918 4.04975 145.181 5.05108 144.708 6.15253C143.723 8.43333 142.763 10.7252 141.791 13.006C140.476 16.0768 139.162 19.1586 138.466 22.374C138.242 23.4198 138.124 24.499 138.045 25.5671C137.979 26.5128 138.216 27.4362 138.715 28.3041C139.202 29.1496 138.834 29.6169 137.703 29.5613C137.283 29.539 136.849 29.45 136.442 29.3276C134.602 28.7825 132.999 27.9258 131.606 26.7687C130.331 25.7117 129.897 24.4768 130.252 22.9859C130.896 20.3157 131.881 17.7345 132.893 15.1533C133.367 13.9406 133.892 12.739 134.392 11.5263C134.484 11.3038 134.562 11.0924 134.51 10.792C134.326 10.9923 134.116 11.1814 133.958 11.3928C131.461 14.6304 128.938 17.8569 126.506 21.1279C125.021 23.1194 123.681 25.1777 122.288 27.2137C121.565 28.2596 121.026 28.4932 119.62 28.2484C118.148 27.9925 116.781 27.5141 115.598 26.7242C114.665 26.1011 114.179 25.3446 114.389 24.2765C114.849 21.9512 115.244 19.6259 115.625 17.3006C116.045 14.7862 116.453 12.2717 116.321 9.72392C116.308 9.46803 116.282 9.20101 116.229 8.74485C116.058 9.04525 115.953 9.17876 115.901 9.32339C114.876 12.7168 113.798 16.099 112.365 19.3811C111.59 21.1501 110.723 22.8858 109.566 24.499C108.843 25.5115 108.029 26.4572 106.938 27.2137C104.901 28.6156 101.786 28.6378 99.7096 27.2694C99.2497 26.969 99.2234 26.535 99.6308 26.2013C99.7228 26.1345 99.8411 26.09 99.9462 26.0344C102.338 24.9774 104.125 23.3642 105.663 21.5396C107.477 19.4034 108.817 17.0558 109.842 14.5748C110.657 12.5721 111.524 10.5917 112.247 8.56684C112.641 7.44313 112.825 6.27492 113.049 5.10671C113.154 4.58379 113.193 4.00525 112.51 3.7271C111.879 3.47121 111.209 3.59359 110.683 3.983C109.054 5.19571 107.884 7.61002 109.093 9.67942C109.225 9.90194 109.343 10.1356 109.566 10.5584L109.606 10.5806Z" fill="#9BC83E"/>
<path d="M17.2024 3.25954C16.0196 3.22616 14.9682 3.52656 13.9431 3.8492C11.7484 4.52788 9.85592 5.58483 8.476 7.2092C6.67554 9.33424 6.47841 11.5817 7.95032 13.9181C8.08174 14.1295 8.23945 14.4299 8.16059 14.619C8.01603 14.9528 7.5692 14.9639 7.20122 14.9194C4.53338 14.6079 2.27294 13.6511 0.840448 11.6707C-0.434336 9.92391 -0.118925 8.1104 0.998153 6.37477C1.73411 5.22881 2.86433 4.37212 4.12597 3.63781C6.37327 2.33609 8.89655 1.55728 11.5118 1.01212C15.6516 0.155429 19.8439 -0.178345 24.102 0.0998003C26.3493 0.244436 28.5571 0.667218 30.6599 1.41265C35.8904 3.27066 38.532 6.8198 38.2297 11.6929C37.8617 17.5674 34.5105 21.9954 28.8463 25.2219C23.4054 28.3149 17.4389 29.027 11.1176 27.6696C10.0925 27.4471 9.09368 27.0243 8.18688 26.5459C6.6624 25.7448 6.37327 25.0662 6.93838 23.6421C7.92404 21.1387 8.90969 18.6354 10.0399 16.1766C11.4855 13.0058 13.0626 9.89053 14.5739 6.74192C15.1916 5.46245 15.8224 4.17185 17.2024 3.27066V3.25954ZM30.1867 10.3133C30.1867 9.86828 30.2262 9.42324 30.1867 8.97821C30.0159 7.35384 29.4376 5.86298 28.1103 4.62801C27.2955 3.87146 26.323 3.34854 25.127 3.14828C24.3122 3.01477 24.1677 3.0704 23.826 3.68232C23.7603 3.8047 23.7077 3.92709 23.642 4.03834C21.1976 9.1451 18.74 14.2407 16.3218 19.3586C15.7173 20.6381 15.231 21.9621 14.6791 23.2749C14.4294 23.8757 14.6791 24.3652 15.2442 24.7213C15.5859 24.9326 15.9933 25.0773 16.4007 25.1774C17.3206 25.3999 18.2406 25.2775 19.1474 25.0884C21.3815 24.6211 23.1952 23.5419 24.7328 22.1512C28.4126 18.8246 30.0422 14.8081 30.1605 10.3133H30.1867Z" fill="#9BC83E"/>
<path d="M89.7866 25.9121C89.458 26.1013 89.1295 26.2682 88.8009 26.4684C86.8296 27.6478 84.6611 28.3264 82.2299 28.3042C81.9276 28.3042 81.6122 28.2819 81.3099 28.2374C79.1152 27.9037 77.9718 26.6242 78.3267 24.755C78.4844 23.9429 78.7735 23.1195 79.1283 22.3519C79.746 21.039 80.4688 19.7707 81.1259 18.469C81.5202 17.7013 81.9144 16.9336 82.2036 16.1325C82.4533 15.4427 82.5978 14.7084 82.7293 13.9964C82.8475 13.3733 83.0052 13.1286 83.7281 13.0729C84.3063 13.0284 84.8977 13.0729 85.4628 13.1731C86.3171 13.3399 87.053 13.7182 87.7101 14.2189C89.0637 15.2536 89.55 16.4997 88.906 17.9683C88.5381 18.7916 88.0387 19.5815 87.605 20.3937C87.1713 21.2282 86.7245 22.0626 86.3565 22.9082C86.1725 23.3198 86.0542 23.8205 86.5536 24.1431C86.9873 24.4324 87.4998 24.2766 87.9598 24.1209C89.0769 23.7426 89.9968 23.1529 90.6408 22.2851C92.5201 19.7595 93.7029 17.0448 93.7949 14.0297C93.8212 13.1842 94.1103 12.9728 95.096 13.0173C96.2525 13.0618 97.3827 13.2176 98.3815 13.7293C98.9072 13.9964 99.4197 14.3079 99.8403 14.675C100.537 15.287 100.747 16.0324 100.405 16.8446C100.011 17.8014 99.5906 18.7582 99.2094 19.7262C97.7112 23.4644 96.2262 27.1916 94.7149 30.9299C93.9526 32.8324 93.0852 34.7127 91.9156 36.4705C91.1402 37.6388 90.2334 38.718 89.1163 39.6748C84.7006 43.4576 77.0519 42.434 73.8978 38.017C73.5561 37.5386 73.3064 36.9712 73.1881 36.426C73.0435 35.8141 73.5692 35.5026 74.2789 35.6917C74.3709 35.714 74.4497 35.7585 74.5286 35.7807C78.2215 37.2048 81.9407 36.6486 84.8189 34.2343C86.1331 33.1328 87.145 31.8533 87.9072 30.4403C88.6038 29.1386 89.1952 27.7813 89.8128 26.4462C89.8786 26.3127 89.8917 26.1569 89.9311 26.0123C89.8786 25.9789 89.826 25.9344 89.7734 25.901L89.7866 25.9121Z" fill="#9BC83E"/>
<path d="M171.977 25.9006C171.53 26.1454 171.136 26.3568 170.755 26.5681C168.823 27.6362 166.746 28.2927 164.407 28.3038C162.055 28.3038 160.57 27.2246 160.228 25.2553C159.991 23.9536 160.228 22.6852 160.793 21.4836C162.804 17.0444 166.641 14.3297 172.082 13.2617C174.448 12.7944 176.8 12.8945 179.087 13.7067C180.099 14.0627 181.032 14.5189 181.781 15.1976C182.451 15.8095 182.491 16.0765 182.031 16.8108C181.492 17.6897 180.887 18.5464 180.375 19.4365C179.244 21.3835 178.495 23.4195 178.482 25.6002C178.482 26.1676 178.587 26.7462 178.719 27.3025C178.89 28.059 178.679 28.3149 177.746 28.2927C175.88 28.2482 174.264 27.6807 172.884 26.6015C172.608 26.3901 172.345 26.1787 171.99 25.9006H171.977ZM167.443 23.1636C167.364 24.076 168.061 24.3986 169.007 24.0315C169.362 23.898 169.703 23.6866 169.992 23.4529C170.466 23.0746 170.912 22.6741 171.307 22.2513C172.66 20.7827 173.751 19.1806 174.632 17.4784C174.737 17.267 174.842 17.0444 174.921 16.8219C175.17 16.0654 174.855 15.7761 173.935 15.9541C173.107 16.1099 172.384 16.477 171.753 16.9443C169.887 18.3017 168.56 19.9705 167.771 21.9509C167.614 22.3403 167.535 22.7631 167.43 23.1636H167.443Z" fill="#9BC83E"/>
<path d="M48.2576 25.9123C47.8239 26.146 47.4034 26.3574 46.9959 26.5799C45.0903 27.6368 43.0402 28.2821 40.7403 28.2933C38.1776 28.3044 36.5743 27.0027 36.456 24.8331C36.3246 22.2742 37.4154 20.0713 39.229 18.102C41.726 15.3984 44.9852 13.7073 48.9935 13.151C51.4905 12.8061 53.935 13.0064 56.1823 14.0633C56.8788 14.386 57.4965 14.8421 58.0879 15.2872C58.6267 15.6988 58.6924 16.2106 58.3113 16.778C57.7199 17.6347 57.1679 18.5137 56.6422 19.3926C55.6434 21.0615 54.9995 22.8194 54.7761 24.6885C54.6709 25.5786 54.6578 26.4575 54.9601 27.3253C55.1966 28.0263 54.9206 28.3044 54.0533 28.2933C52.2265 28.2599 50.61 27.7259 49.2564 26.6912C48.941 26.4464 48.6256 26.2016 48.2576 25.9123ZM43.763 23.0419C43.7104 24.021 44.2755 24.3881 45.1692 24.0543C45.6423 23.8874 46.1023 23.6204 46.4571 23.3089C48.6124 21.4509 50.1106 19.248 51.2014 16.8337C51.5431 16.066 51.162 15.7545 50.1895 15.9547C49.3352 16.1327 48.5993 16.5221 47.9422 17.0117C46.1023 18.3913 44.7749 20.0713 44.0258 22.0517C43.8813 22.4188 43.8156 22.8082 43.7499 23.0308L43.763 23.0419Z" fill="#9BC83E"/>
<path d="M149.584 23.175C149.768 23.7535 150.254 24.0984 150.951 24.2653C152.173 24.5546 153.356 24.3988 154.473 23.9649C155.222 23.6757 155.892 23.2418 156.576 22.8412C157.22 22.4629 157.548 22.3962 157.903 22.6187C158.297 22.8746 158.35 23.264 158.035 23.8314C157.575 24.6436 156.891 25.3223 156.103 25.912C154.171 27.3361 151.897 28.0704 149.374 28.2929C148.086 28.4041 146.785 28.4486 145.51 28.1594C142.842 27.5475 141.318 25.8563 141.305 23.5088C141.305 22.0847 141.725 20.7607 142.54 19.5369C144.853 16.0545 148.349 13.9072 152.988 13.1395C154.355 12.917 155.761 12.917 157.128 13.2396C157.483 13.3286 157.837 13.4288 158.166 13.5734C160.072 14.3745 160.794 16.1101 159.901 17.7567C159.414 18.6579 158.626 19.3588 157.719 19.9596C155.472 21.4616 152.896 22.3628 150.136 22.9525C149.992 22.9859 149.847 23.0192 149.702 23.0637C149.676 23.0637 149.663 23.0971 149.597 23.175H149.584ZM149.729 20.438C151.897 19.9151 153.803 19.0696 155.064 17.4341C155.209 17.2449 155.301 17.0113 155.354 16.7776C155.485 16.2102 155.091 15.8431 154.421 15.9321C154.066 15.9766 153.698 16.0878 153.382 16.2436C151.503 17.2116 150.346 18.6468 149.729 20.438Z" fill="#9BC83E"/>
<path d="M185.96 28.3933C184.883 28.193 183.766 28.0707 182.714 27.7814C181.111 27.3363 180.704 26.6465 181.164 25.2447C181.532 24.1432 181.952 23.0418 182.465 21.9848C184.239 18.3022 186.079 14.6529 187.84 10.9703C188.655 9.27913 189.391 7.55463 190.1 5.83012C190.363 5.19595 190.468 4.50615 190.626 3.84973C190.77 3.24893 190.928 3.08204 191.638 3.03754C192.098 3.00416 192.584 3.00416 193.018 3.1043C194.437 3.42694 195.594 4.09449 196.5 5.07357C196.947 5.55198 197.131 6.09714 196.895 6.68681C196.474 7.75489 196.093 8.8341 195.58 9.8688C193.767 13.5292 191.874 17.1673 190.074 20.8389C189.246 22.53 188.563 24.2656 187.853 25.9901C187.682 26.4018 187.616 26.8579 187.564 27.2918C187.459 28.1708 187.288 28.3154 186.25 28.3154C186.158 28.3154 186.066 28.3154 185.974 28.3154C185.974 28.3488 185.96 28.3711 185.947 28.4044L185.96 28.3933Z" fill="#9BC83E"/>
<path d="M65.0398 13.1059C65.4867 12.2047 65.9335 11.3146 66.3935 10.4023C65.329 9.42323 65.237 8.26614 65.5524 7.07568C65.9466 5.62932 66.7877 4.39436 68.2859 3.57104C70.2835 2.48071 72.3206 3.20389 72.7543 5.19542C73.0697 6.6529 72.7543 8.06588 71.8869 9.35647C71.2955 10.2354 70.3887 10.814 69.1665 10.9475C68.7065 10.992 68.4436 11.17 68.3122 11.5371C68.0494 12.2826 67.7603 13.028 67.4843 13.7734C67.366 14.0961 67.4448 14.3742 67.7208 14.6412C68.4699 15.3755 68.6276 16.2322 68.2465 17.1334C67.8785 18.0124 67.4711 18.8913 67.0374 19.7591C66.2752 21.2389 65.4341 22.6963 64.6719 24.1872C64.1462 25.2219 63.7782 26.3011 63.7519 27.4471C63.7519 28.0701 63.4496 28.3038 62.7268 28.3038C61.3601 28.3038 60.0064 28.1814 58.7316 27.7363C57.3386 27.2579 56.9312 26.7016 57.2597 25.4889C57.5226 24.5321 57.8905 23.5753 58.3242 22.663C59.2573 20.7271 60.2955 18.8357 61.2549 16.9109C61.728 15.943 62.0697 14.9416 62.1354 13.8847C62.1617 13.384 62.372 13.1838 62.9634 13.0948C63.3182 13.0391 63.6993 13.0502 64.0673 13.0502C64.3696 13.0502 64.6719 13.0836 65.053 13.1059H65.0398Z" fill="#9BC83E"/>
<path d="M81.034 7.97704C80.9815 10.8475 80.3244 13.2062 78.7999 15.3757C78.629 15.6205 78.4319 15.8541 78.2348 16.0878C78.0113 16.3548 77.7616 16.3993 77.3542 16.2769C75.8429 15.8096 74.8178 16.5217 74.9887 17.9013C75.0675 18.5021 75.1595 19.0917 75.3172 19.6814C75.7509 21.2502 75.4486 22.741 74.7521 24.1985C74.2133 25.3333 73.5825 26.4459 73.359 27.6698C73.2802 28.1037 72.8991 28.2817 72.4128 28.2594C71.1117 28.1927 69.8238 28.0369 68.6805 27.4584C67.8262 27.0356 67.5108 26.5015 67.7999 25.6671C68.2862 24.243 68.7856 22.8078 69.4427 21.4282C71.3746 17.3784 73.3853 13.3619 75.3435 9.33439C76.3554 7.25386 77.1965 5.12883 77.7616 2.92592C77.7748 2.84803 77.8142 2.77015 77.8274 2.7034C77.9194 2.36962 78.0245 2.00247 78.5107 1.94684C79.0496 1.88009 79.365 2.18048 79.5884 2.54764C80.2586 3.62684 80.5872 4.79505 80.8106 5.98552C80.9552 6.7532 80.9946 7.54313 81.0472 7.96591L81.034 7.97704Z" fill="#9BC83E"/>
</g>
<defs>
<clipPath id="clip0_124_417">
<rect width="197" height="42" fill="white"/>
</clipPath>
</defs>
</svg>
