<svg width="63" height="66" viewBox="0 0 63 66" fill="none" xmlns="http://www.w3.org/2000/svg">
<path d="M57.069 0.60791H6.02244C3.20231 0.60791 0.917969 3.39454 0.917969 6.82747V50.3651C0.917969 53.7985 3.20231 56.5847 6.02244 56.5847H35.5934C35.4607 55.5711 35.3739 54.5352 35.3739 53.4747C35.3739 42.3102 42.8013 33.261 51.9635 33.261C55.8174 33.261 59.355 34.875 62.173 37.5649V6.82747C62.173 3.39442 59.886 0.60791 57.0686 0.60791L57.069 0.60791ZM26.4415 41.0365V16.1568L41.7553 28.5966L26.4415 41.0365Z" fill="#D3D3D3"/>
<path d="M41.7549 56.5855H49.4118V65.9151H54.5162V56.5855H62.1731L51.9636 41.0366L41.7549 56.5855Z" fill="#D3D3D3"/>
</svg>
