<svg width="20" height="20" viewBox="0 0 20 20" fill="none" xmlns="http://www.w3.org/2000/svg">
<path d="M2.5225 20H13.4522C14.3441 20 15.1995 19.699 15.8301 19.1631C16.4608 18.6274 16.8151 17.9007 16.8151 17.1429V13.5501L15.9744 13.9608C15.7145 14.0884 15.4296 14.1754 15.1337 14.2178V17.1429C15.1337 17.5217 14.9565 17.8851 14.6412 18.1531C14.3258 18.4209 13.898 18.5714 13.4522 18.5714H9.66882V10.7143H13.8725V12.1072C13.8729 12.3623 14.0332 12.5978 14.2933 12.7252C14.5534 12.8527 14.8737 12.8526 15.1336 12.725L19.5811 10.5429C19.8405 10.4151 20 10.1797 20 9.92511C20 9.67033 19.8405 9.43499 19.5811 9.30711L15.1336 7.14292C14.8737 7.01537 14.5534 7.01537 14.2933 7.14276C14.0332 7.27015 13.8729 7.50564 13.8725 7.76076V9.28577H9.66882V4.82865C9.66901 4.55919 9.57968 4.29502 9.41078 4.06685C9.24188 3.83886 9.00054 3.65584 8.71455 3.53926L3.78347 1.52858C3.681 1.48968 3.57553 1.45636 3.46819 1.42861H13.4519C13.8978 1.42861 14.3255 1.57912 14.6409 1.84698C14.9562 2.11499 15.1334 2.47836 15.1334 2.85718V5.63219C15.4293 5.6746 15.7142 5.76181 15.9741 5.88936L16.8149 6.30005V2.85713C16.8149 2.09934 16.4606 1.37261 15.8298 0.836894C15.1992 0.301019 14.3439 0 13.4519 0H3.36297C2.47102 0 1.61562 0.301019 0.985063 0.836894C0.354313 1.37261 0 2.09934 0 2.85713V17.8571C0 18.4255 0.265733 18.9704 0.738653 19.3724C1.21176 19.7741 1.85319 19.9999 2.52223 19.9999L2.5225 20Z" fill="white"/>
</svg>
